<svg width="27" height="26" viewBox="0 0 27 26" fill="none" xmlns="http://www.w3.org/2000/svg">
<path d="M13.3148 2.16699C10.5375 2.17491 7.86939 3.24915 5.86145 5.16783V3.25033C5.86145 2.96301 5.74731 2.68746 5.54414 2.48429C5.34098 2.28113 5.06543 2.16699 4.77811 2.16699C4.49079 2.16699 4.21524 2.28113 4.01208 2.48429C3.80892 2.68746 3.69478 2.96301 3.69478 3.25033V8.12533C3.69478 8.41264 3.80892 8.68819 4.01208 8.89136C4.21524 9.09452 4.49079 9.20866 4.77811 9.20866H9.65311C9.94043 9.20866 10.216 9.09452 10.4191 8.89136C10.6223 8.68819 10.7364 8.41264 10.7364 8.12533C10.7364 7.83801 10.6223 7.56246 10.4191 7.35929C10.216 7.15613 9.94043 7.04199 9.65311 7.04199H7.05311C8.44604 5.58638 10.3026 4.66154 12.3035 4.42647C14.3045 4.1914 16.3248 4.6608 18.0172 5.75396C19.7095 6.84712 20.9681 8.49573 21.5766 10.4163C22.1851 12.337 22.1055 14.4096 21.3514 16.2778C20.5973 18.1461 19.2159 19.6933 17.4446 20.6533C15.6734 21.6134 13.623 21.9264 11.646 21.5384C9.66896 21.1505 7.88887 20.0859 6.61175 18.5277C5.33464 16.9695 4.6403 15.015 4.64811 13.0003C4.64811 12.713 4.53398 12.4375 4.33081 12.2343C4.12765 12.0311 3.8521 11.917 3.56478 11.917C3.27746 11.917 3.00191 12.0311 2.79875 12.2343C2.59558 12.4375 2.48145 12.713 2.48145 13.0003C2.48145 15.143 3.11681 17.2375 4.30719 19.019C5.49757 20.8005 7.18951 22.1891 9.16904 23.009C11.1486 23.829 13.3268 24.0435 15.4283 23.6255C17.5297 23.2075 19.46 22.1757 20.9751 20.6606C22.4902 19.1456 23.5219 17.2153 23.94 15.1138C24.358 13.0123 24.1434 10.8341 23.3235 8.85459C22.5035 6.87506 21.115 5.18312 19.3335 3.99274C17.5519 2.80236 15.4574 2.16699 13.3148 2.16699ZM13.3148 8.66699C13.0275 8.66699 12.7519 8.78113 12.5487 8.98429C12.3456 9.18746 12.2314 9.46301 12.2314 9.75033V13.0003C12.2314 13.2876 12.3456 13.5632 12.5487 13.7664C12.7519 13.9695 13.0275 14.0837 13.3148 14.0837H15.4814C15.7688 14.0837 16.0443 13.9695 16.2475 13.7664C16.4506 13.5632 16.5648 13.2876 16.5648 13.0003C16.5648 12.713 16.4506 12.4375 16.2475 12.2343C16.0443 12.0311 15.7688 11.917 15.4814 11.917H14.3981V9.75033C14.3981 9.46301 14.284 9.18746 14.0808 8.98429C13.8776 8.78113 13.6021 8.66699 13.3148 8.66699Z" fill="white"/>
</svg>
