<svg width="22" height="22" viewBox="0 0 22 22" fill="none" xmlns="http://www.w3.org/2000/svg">
<path d="M11.0011 1.8335C8.65116 1.8402 6.39351 2.74917 4.69447 4.37266V2.75016C4.69447 2.50705 4.5979 2.27389 4.42599 2.10198C4.25408 1.93007 4.02092 1.8335 3.77781 1.8335C3.53469 1.8335 3.30153 1.93007 3.12962 2.10198C2.95772 2.27389 2.86114 2.50705 2.86114 2.75016V6.87516C2.86114 7.11828 2.95772 7.35144 3.12962 7.52334C3.30153 7.69525 3.53469 7.79183 3.77781 7.79183H7.90281C8.14592 7.79183 8.37908 7.69525 8.55099 7.52334C8.7229 7.35144 8.81947 7.11828 8.81947 6.87516C8.81947 6.63205 8.7229 6.39889 8.55099 6.22698C8.37908 6.05507 8.14592 5.9585 7.90281 5.9585H5.70281C6.88144 4.72682 8.45235 3.94426 10.1455 3.74536C11.8386 3.54646 13.5481 3.94364 14.9801 4.86862C16.4121 5.7936 17.4771 7.18858 17.9919 8.81372C18.5068 10.4389 18.4394 12.1926 17.8014 13.7734C17.1633 15.3543 15.9944 16.6634 14.4956 17.4758C12.9969 18.2881 11.2619 18.553 9.58907 18.2247C7.91621 17.8965 6.40998 16.9957 5.32935 15.6772C4.24871 14.3587 3.66119 12.7049 3.66781 11.0002C3.66781 10.757 3.57123 10.5239 3.39932 10.352C3.22741 10.1801 2.99425 10.0835 2.75114 10.0835C2.50802 10.0835 2.27487 10.1801 2.10296 10.352C1.93105 10.5239 1.83447 10.757 1.83447 11.0002C1.83447 12.8132 2.37209 14.5854 3.37933 16.0929C4.38658 17.6003 5.81822 18.7753 7.49321 19.4691C9.1682 20.1629 11.0113 20.3444 12.7895 19.9907C14.5676 19.637 16.201 18.764 17.483 17.482C18.7649 16.2 19.638 14.5666 19.9917 12.7885C20.3454 11.0103 20.1638 9.16722 19.47 7.49223C18.7762 5.81724 17.6013 4.3856 16.0939 3.37836C14.5864 2.37111 12.8141 1.8335 11.0011 1.8335ZM11.0011 7.3335C10.758 7.3335 10.5249 7.43007 10.353 7.60198C10.181 7.77389 10.0845 8.00705 10.0845 8.25016V11.0002C10.0845 11.2433 10.181 11.4764 10.353 11.6483C10.5249 11.8203 10.758 11.9168 11.0011 11.9168H12.8345C13.0776 11.9168 13.3107 11.8203 13.4827 11.6483C13.6546 11.4764 13.7511 11.2433 13.7511 11.0002C13.7511 10.757 13.6546 10.5239 13.4827 10.352C13.3107 10.1801 13.0776 10.0835 12.8345 10.0835H11.9178V8.25016C11.9178 8.00705 11.8212 7.77389 11.6493 7.60198C11.4774 7.43007 11.2443 7.3335 11.0011 7.3335Z" fill="white"/>
</svg>
