<svg width="24" height="24" viewBox="0 0 24 24" fill="none" xmlns="http://www.w3.org/2000/svg">
<path d="M11.9994 2.66626C10.1534 2.66626 8.34889 3.21365 6.81403 4.23921C5.27917 5.26477 4.0829 6.72244 3.37648 8.42788C2.67006 10.1333 2.48523 12.0099 2.84536 13.8204C3.20549 15.6309 4.0944 17.294 5.39969 18.5993C6.70498 19.9045 8.36802 20.7935 10.1785 21.1536C11.989 21.5137 13.8656 21.3289 15.5711 20.6225C17.2765 19.9161 18.7342 18.7198 19.7597 17.1849C20.7853 15.6501 21.3327 13.8456 21.3327 11.9996C21.3299 9.52508 20.3457 7.15271 18.596 5.40297C16.8462 3.65323 14.4739 2.66901 11.9994 2.66626ZM11.9994 19.4663C10.5226 19.4663 9.07898 19.0283 7.8511 18.2079C6.62321 17.3875 5.66619 16.2213 5.10105 14.857C4.53592 13.4926 4.38805 11.9913 4.67616 10.5429C4.96426 9.09453 5.67539 7.76409 6.71962 6.71986C7.76385 5.67563 9.09429 4.9645 10.5427 4.6764C11.9911 4.38829 13.4924 4.53616 14.8567 5.10129C16.2211 5.66643 17.3872 6.62345 18.2077 7.85134C19.0281 9.07922 19.466 10.5228 19.466 11.9996C19.4638 13.9792 18.6764 15.877 17.2766 17.2768C15.8768 18.6766 13.9789 19.464 11.9994 19.4663ZM11.9994 11.5329C11.7518 11.5329 11.5144 11.6313 11.3394 11.8063C11.1644 11.9813 11.066 12.2187 11.066 12.4663V15.2663C11.066 15.5138 11.1644 15.7512 11.3394 15.9262C11.5144 16.1013 11.7518 16.1996 11.9994 16.1996C12.2469 16.1996 12.4843 16.1013 12.6593 15.9262C12.8344 15.7512 12.9327 15.5138 12.9327 15.2663V12.4663C12.9327 12.2187 12.8344 11.9813 12.6593 11.8063C12.4843 11.6313 12.2469 11.5329 11.9994 11.5329ZM11.9994 7.79959C11.7686 7.79959 11.543 7.86802 11.3512 7.99621C11.1593 8.12441 11.0098 8.30662 10.9215 8.5198C10.8332 8.73298 10.8101 8.96755 10.8551 9.19387C10.9001 9.42018 11.0112 9.62806 11.1744 9.79122C11.3376 9.95438 11.5454 10.0655 11.7717 10.1105C11.9981 10.1555 12.2326 10.1324 12.4458 10.0441C12.659 9.95582 12.8412 9.80628 12.9694 9.61443C13.0976 9.42257 13.166 9.197 13.166 8.96626C13.166 8.65684 13.0431 8.36009 12.8243 8.1413C12.6055 7.92251 12.3088 7.79959 11.9994 7.79959Z" fill="white"/>
</svg>
