<svg width="29" height="28" viewBox="0 0 29 28" fill="none" xmlns="http://www.w3.org/2000/svg">
<path d="M22.6211 2.57829C22.4839 2.46318 22.322 2.38121 22.148 2.33872C21.9741 2.29623 21.7926 2.29438 21.6178 2.33329L12.2845 4.66663C12.0256 4.7305 11.7964 4.88111 11.6351 5.09339C11.4738 5.30566 11.39 5.56679 11.3978 5.83329V17.9083C10.8527 17.642 10.2544 17.5025 9.64779 17.5C8.84018 17.5 8.05071 17.7394 7.37921 18.1881C6.70771 18.6368 6.18434 19.2745 5.87528 20.0207C5.56622 20.7668 5.48536 21.5878 5.64292 22.3799C5.80047 23.172 6.18937 23.8996 6.76044 24.4706C7.3315 25.0417 8.05908 25.4306 8.85117 25.5882C9.64326 25.7457 10.4643 25.6649 11.2104 25.3558C11.9565 25.0467 12.5943 24.5234 13.043 23.8519C13.4916 23.1804 13.7311 22.3909 13.7311 21.5833V12.5766L22.1778 10.5H22.2595L22.4811 10.325L22.6561 10.2083C22.7128 10.1555 22.7636 10.0969 22.8078 10.0333C22.8533 9.97967 22.8925 9.92094 22.9245 9.85829C22.9598 9.79288 22.9835 9.72182 22.9945 9.6483C23.0066 9.57491 23.0066 9.50001 22.9945 9.42663C22.9997 9.39574 22.9997 9.36419 22.9945 9.33329V3.49996C23.004 3.32832 22.9754 3.15669 22.9109 2.99736C22.8464 2.83803 22.7474 2.69493 22.6211 2.57829ZM9.64779 23.3333C9.30167 23.3333 8.96333 23.2307 8.67554 23.0384C8.38775 22.8461 8.16345 22.5728 8.031 22.253C7.89855 21.9332 7.86389 21.5814 7.93141 21.2419C7.99894 20.9024 8.16561 20.5906 8.41035 20.3459C8.65509 20.1011 8.96691 19.9344 9.30638 19.8669C9.64585 19.7994 9.99771 19.8341 10.3175 19.9665C10.6373 20.099 10.9106 20.3233 11.1029 20.611C11.2952 20.8988 11.3978 21.2372 11.3978 21.5833C11.3978 22.0474 11.2134 22.4925 10.8852 22.8207C10.557 23.1489 10.1119 23.3333 9.64779 23.3333ZM20.7311 8.42329L13.7311 10.1733V6.74329L20.7311 4.99329V8.42329Z" fill="white"/>
</svg>
