<svg width="40" height="40" viewBox="0 0 40 40" fill="none" xmlns="http://www.w3.org/2000/svg">
<g filter="url(#filter0_i_417_20)">
<path d="M6.72658 25.5084L14.1768 25.5084C14.613 25.5084 15.0313 25.6817 15.3397 25.9901C15.6482 26.2986 15.8215 26.7169 15.8215 27.1531C15.8215 27.5893 15.6482 28.0076 15.3397 28.316C15.0313 28.6244 14.613 28.7977 14.1768 28.7977L10.2297 28.7977C12.0438 30.6936 14.3834 32.0036 16.9478 32.5597C19.5122 33.1157 22.1842 32.8922 24.6207 31.918C27.0571 30.9438 29.1466 29.2633 30.6206 27.0925C32.0947 24.9217 32.886 22.3597 32.8928 19.7357C32.8928 19.2995 33.0661 18.8812 33.3745 18.5728C33.683 18.2644 34.1013 18.0911 34.5375 18.0911C34.9737 18.0911 35.392 18.2644 35.7004 18.5728C36.0089 18.8812 36.1821 19.2995 36.1821 19.7357C36.1734 22.9474 35.2246 26.0862 33.4527 28.7649C31.6808 31.4435 29.1633 33.5447 26.2111 34.8093C23.2588 36.0738 20.0009 36.4462 16.8395 35.8806C13.678 35.315 10.7513 33.8361 8.42056 31.6265L8.42056 34.5375C8.42056 34.9737 8.24728 35.392 7.93885 35.7005C7.63042 36.0089 7.2121 36.1822 6.77592 36.1822C6.33973 36.1822 5.92141 36.0089 5.61298 35.7005C5.30455 35.392 5.13127 34.9737 5.13127 34.5375L5.13127 27.1366C5.13533 26.7117 5.3037 26.3049 5.6011 26.0013C5.89849 25.6978 6.30183 25.5212 6.72658 25.5084ZM19.7357 3.28931C23.9519 3.30133 28.0025 4.93216 31.0508 7.84497L31.0508 4.93395C31.0508 4.49776 31.2241 4.07944 31.5325 3.77101C31.841 3.46258 32.2593 3.28931 32.6955 3.28931C33.1317 3.28931 33.55 3.46258 33.8584 3.77101C34.1669 4.07944 34.3401 4.49776 34.3401 4.93395L34.3401 12.3348C34.3401 12.771 34.1669 13.1893 33.8584 13.4978C33.55 13.8062 33.1317 13.9795 32.6955 13.9795L25.2946 13.9795C24.8584 13.9795 24.4401 13.8062 24.1317 13.4978C23.8232 13.1893 23.65 12.771 23.65 12.3348C23.65 11.8987 23.8232 11.4803 24.1317 11.1719C24.4401 10.8635 24.8584 10.6902 25.2946 10.6902L29.2417 10.6902C27.4286 8.79536 25.0905 7.48561 22.5276 6.92908C19.9648 6.37255 17.2941 6.59462 14.8583 7.5668C12.4226 8.53897 10.333 10.2169 8.85765 12.3852C7.38234 14.5535 6.58869 17.1132 6.57856 19.7357C6.57856 20.1719 6.40528 20.5902 6.09685 20.8987C5.78842 21.2071 5.3701 21.3804 4.93392 21.3804C4.49773 21.3804 4.07941 21.2071 3.77098 20.8987C3.46255 20.5902 3.28927 20.1719 3.28927 19.7357C3.28927 17.576 3.71467 15.4373 4.54118 13.442C5.36769 11.4466 6.57913 9.63355 8.10632 8.10635C9.63351 6.57916 11.4466 5.36773 13.4419 4.54122C15.4373 3.71471 17.5759 3.28931 19.7357 3.28931Z" fill="white"/>
</g>
<defs>
<filter id="filter0_i_417_20" x="3.28906" y="3.28931" width="34.2088" height="34.2085" filterUnits="userSpaceOnUse" color-interpolation-filters="sRGB">
<feFlood flood-opacity="0" result="BackgroundImageFix"/>
<feBlend mode="normal" in="SourceGraphic" in2="BackgroundImageFix" result="shape"/>
<feColorMatrix in="SourceAlpha" type="matrix" values="0 0 0 0 0 0 0 0 0 0 0 0 0 0 0 0 0 0 127 0" result="hardAlpha"/>
<feOffset dx="1.31571" dy="1.31571"/>
<feGaussianBlur stdDeviation="0.657857"/>
<feComposite in2="hardAlpha" operator="arithmetic" k2="-1" k3="1"/>
<feColorMatrix type="matrix" values="0 0 0 0 1 0 0 0 0 1 0 0 0 0 1 0 0 0 0.5 0"/>
<feBlend mode="normal" in2="shape" result="effect1_innerShadow_417_20"/>
</filter>
</defs>
</svg>
