<svg width="29" height="28" viewBox="0 0 29 28" fill="none" xmlns="http://www.w3.org/2000/svg">
<path d="M14.8158 4.78341C14.6263 4.70144 14.4185 4.67122 14.2135 4.69581C14.0086 4.72041 13.8138 4.79895 13.6491 4.92341L8.07246 9.33341H3.81413C3.50471 9.33341 3.20796 9.45633 2.98917 9.67512C2.77038 9.89391 2.64746 10.1907 2.64746 10.5001V17.5001C2.64746 17.8095 2.77038 18.1062 2.98917 18.325C3.20796 18.5438 3.50471 18.6667 3.81413 18.6667H8.07246L13.5908 23.0767C13.7961 23.2414 14.051 23.3319 14.3141 23.3334C14.4884 23.3363 14.6607 23.2962 14.8158 23.2167C15.0143 23.1222 15.1821 22.9734 15.2998 22.7877C15.4174 22.6019 15.4802 22.3866 15.4808 22.1667V5.83341C15.4802 5.61351 15.4174 5.39826 15.2998 5.21249C15.1821 5.02671 15.0143 4.87797 14.8158 4.78341ZM13.1475 19.7401L9.20413 16.5901C8.99886 16.4254 8.74395 16.3349 8.48079 16.3334H4.98079V11.6667H8.48079C8.74395 11.6652 8.99886 11.5748 9.20413 11.4101L13.1475 8.26008V19.7401ZM23.2508 7.39674C23.0311 7.17706 22.7331 7.05364 22.4225 7.05364C22.1118 7.05364 21.8138 7.17706 21.5941 7.39674C21.3744 7.61643 21.251 7.91439 21.251 8.22508C21.251 8.53576 21.3744 8.83372 21.5941 9.05341C22.2811 9.73934 22.8179 10.5607 23.1704 11.4652C23.5229 12.3697 23.6835 13.3377 23.6418 14.3076C23.6001 15.2775 23.3571 16.2282 22.9283 17.0991C22.4994 17.9701 21.8941 18.7423 21.1508 19.3667C20.9703 19.5211 20.8412 19.7269 20.7807 19.9566C20.7203 20.1863 20.7314 20.429 20.8125 20.6522C20.8937 20.8754 21.0411 21.0685 21.235 21.2057C21.4288 21.343 21.66 21.4177 21.8975 21.4201C22.1701 21.4206 22.4342 21.3257 22.6441 21.1517C23.6369 20.3203 24.4458 19.2913 25.0193 18.1302C25.5928 16.9692 25.9185 15.7015 25.9755 14.4078C26.0326 13.1141 25.8198 11.8227 25.3507 10.6156C24.8816 9.40861 24.1665 8.31241 23.2508 7.39674ZM19.9491 10.6984C19.8403 10.5896 19.7112 10.5033 19.5691 10.4445C19.427 10.3856 19.2746 10.3553 19.1208 10.3553C18.967 10.3553 18.8146 10.3856 18.6725 10.4445C18.5304 10.5033 18.4012 10.5896 18.2925 10.6984C18.1837 10.8072 18.0974 10.9363 18.0385 11.0785C17.9797 11.2206 17.9494 11.3729 17.9494 11.5267C17.9494 11.6806 17.9797 11.8329 18.0385 11.975C18.0974 12.1172 18.1837 12.2463 18.2925 12.3551C18.7306 12.7907 18.9782 13.3822 18.9808 14.0001C18.9811 14.34 18.9071 14.6758 18.764 14.9842C18.6209 15.2925 18.4122 15.5658 18.1525 15.7851C18.0343 15.883 17.9367 16.0033 17.8651 16.139C17.7935 16.2748 17.7494 16.4233 17.7353 16.5761C17.7212 16.7289 17.7374 16.883 17.783 17.0295C17.8285 17.1761 17.9026 17.3122 18.0008 17.4301C18.0996 17.5474 18.2205 17.644 18.3566 17.7146C18.4928 17.7851 18.6415 17.8281 18.7943 17.8411C18.9471 17.8541 19.1009 17.8368 19.247 17.7903C19.3931 17.7438 19.5286 17.669 19.6458 17.5701C20.1674 17.1327 20.5871 16.5865 20.8753 15.9698C21.1635 15.3531 21.3133 14.6808 21.3141 14.0001C21.3075 12.7635 20.8177 11.5786 19.9491 10.6984Z" fill="white"/>
</svg>
