<svg width="106" height="106" viewBox="0 0 106 106" fill="none" xmlns="http://www.w3.org/2000/svg">
<g filter="url(#filter0_i_417_24)">
<path d="M27.7868 23.9883C34.9292 17.372 44.3398 13.7515 54.075 13.8745L49.4928 8.95623C48.8063 8.21927 48.4405 7.23976 48.4762 6.23317C48.5118 5.22658 48.9458 4.27536 49.6827 3.58877C50.4197 2.90219 51.3992 2.53648 52.4058 2.57209C53.4124 2.6077 54.3636 3.04173 55.0502 3.77868L66.6997 16.2827C67.3863 17.0197 67.752 17.9992 67.7164 19.0058C67.6807 20.0124 67.2467 20.9636 66.5098 21.6502L54.0057 33.2997C53.2688 33.9862 52.2893 34.352 51.2827 34.3163C50.2761 34.2807 49.3249 33.8467 48.6383 33.1098C47.9517 32.3728 47.586 31.3933 47.6216 30.3867C47.6572 29.3801 48.0912 28.4289 48.8282 27.7423L55.497 21.5292C50.4707 21.2136 45.4448 22.1524 40.8713 24.2612C36.2978 26.37 32.3203 29.5826 29.2966 33.61C26.2728 37.6374 24.2977 42.3534 23.5488 47.3336C22.7999 52.3138 23.3008 57.4021 25.0063 62.1407C26.7119 66.8793 29.5687 71.1196 33.3197 74.4802C37.0708 77.8407 41.5984 80.2161 46.4952 81.3926C51.3921 82.5691 56.5046 82.5099 61.3729 81.2203C66.2412 79.9306 70.7125 77.451 74.3847 74.0045C75.1216 73.3179 76.1011 72.9522 77.1077 72.9878C78.1143 73.0234 79.0656 73.4575 79.7521 74.1944C80.4387 74.9314 80.8044 75.9109 80.7688 76.9175C80.7332 77.9241 80.2992 78.8753 79.5622 79.5619C72.1927 86.4277 62.3976 90.0848 52.3317 89.7287C42.2657 89.3726 32.7536 85.0323 25.8877 77.6628C19.0219 70.2933 15.3647 60.4982 15.7209 50.4323C16.077 40.3663 20.4173 30.8542 27.7868 23.9883Z" fill="#00711E"/>
</g>
<g filter="url(#filter1_i_417_24)">
<circle cx="87.8364" cy="44" r="8" fill="#00711E"/>
</g>
<defs>
<filter id="filter0_i_417_24" x="15.6973" y="2.56982" width="66.3894" height="88.4983" filterUnits="userSpaceOnUse" color-interpolation-filters="sRGB">
<feFlood flood-opacity="0" result="BackgroundImageFix"/>
<feBlend mode="normal" in="SourceGraphic" in2="BackgroundImageFix" result="shape"/>
<feColorMatrix in="SourceAlpha" type="matrix" values="0 0 0 0 0 0 0 0 0 0 0 0 0 0 0 0 0 0 127 0" result="hardAlpha"/>
<feOffset dx="1.31571" dy="1.31571"/>
<feGaussianBlur stdDeviation="0.657857"/>
<feComposite in2="hardAlpha" operator="arithmetic" k2="-1" k3="1"/>
<feColorMatrix type="matrix" values="0 0 0 0 1 0 0 0 0 1 0 0 0 0 1 0 0 0 0.65 0"/>
<feBlend mode="normal" in2="shape" result="effect1_innerShadow_417_24"/>
</filter>
<filter id="filter1_i_417_24" x="79.8364" y="36" width="18.6314" height="18.6314" filterUnits="userSpaceOnUse" color-interpolation-filters="sRGB">
<feFlood flood-opacity="0" result="BackgroundImageFix"/>
<feBlend mode="normal" in="SourceGraphic" in2="BackgroundImageFix" result="shape"/>
<feColorMatrix in="SourceAlpha" type="matrix" values="0 0 0 0 0 0 0 0 0 0 0 0 0 0 0 0 0 0 127 0" result="hardAlpha"/>
<feOffset dx="2.63143" dy="2.63143"/>
<feGaussianBlur stdDeviation="1.97357"/>
<feComposite in2="hardAlpha" operator="arithmetic" k2="-1" k3="1"/>
<feColorMatrix type="matrix" values="0 0 0 0 1 0 0 0 0 1 0 0 0 0 1 0 0 0 0.65 0"/>
<feBlend mode="normal" in2="shape" result="effect1_innerShadow_417_24"/>
</filter>
</defs>
</svg>
