<svg width="82" height="84" viewBox="0 0 82 84" fill="none" xmlns="http://www.w3.org/2000/svg">
<g filter="url(#filter0_i_77_5267)">
<path d="M51.2507 28L30.7507 28C29.8445 28 28.9755 28.3688 28.3347 29.0251C27.694 29.6815 27.334 30.5717 27.334 31.5L27.334 52.5C27.334 53.4283 27.694 54.3185 28.3347 54.9749C28.9755 55.6313 29.8445 56 30.7507 56L51.2507 56C52.1568 56 53.0259 55.6313 53.6666 54.9749C54.3074 54.3185 54.6673 53.4283 54.6673 52.5L54.6673 31.5C54.6673 30.5717 54.3074 29.6815 53.6666 29.0251C53.0259 28.3688 52.1568 28 51.2507 28ZM47.834 49L34.1673 49L34.1673 35L47.834 35L47.834 49ZM41.0007 7C34.2431 7 27.6374 9.05271 22.0187 12.8986C16.4 16.7444 12.0208 22.2107 9.43478 28.6061C6.84879 35.0015 6.17217 42.0388 7.4905 48.8282C8.80883 55.6175 12.0629 61.8539 16.8412 66.7487C21.6195 71.6436 27.7074 74.977 34.3351 76.3275C40.9628 77.678 47.8325 76.9849 54.0757 74.3358C60.3188 71.6867 65.6549 67.2007 69.4092 61.445C73.1635 55.6892 75.1673 48.9223 75.1673 42C75.1673 37.4037 74.2836 32.8525 72.5666 28.6061C70.8495 24.3597 68.3328 20.5013 65.1601 17.2513C61.9875 14.0012 58.221 11.4231 54.0757 9.66422C49.9304 7.9053 45.4875 7 41.0007 7ZM41.0007 70C35.5946 70 30.31 68.3578 25.8151 65.2812C21.3201 62.2045 17.8168 57.8315 15.748 52.7151C13.6792 47.5988 13.1379 41.9689 14.1925 36.5375C15.2472 31.106 17.8504 26.1169 21.6731 22.201C25.4957 18.2851 30.3661 15.6184 35.6682 14.538C40.9703 13.4576 46.4662 14.0121 51.4607 16.1314C56.4552 18.2506 60.7241 21.8395 63.7275 26.444C66.7309 31.0486 68.334 36.4621 68.334 42C68.334 49.4261 65.4542 56.548 60.3283 61.799C55.2023 67.05 48.2499 70 41.0007 70Z" fill="#00711E"/>
</g>
<defs>
<filter id="filter0_i_77_5267" x="6.83398" y="7" width="69.833" height="71.5" filterUnits="userSpaceOnUse" color-interpolation-filters="sRGB">
<feFlood flood-opacity="0" result="BackgroundImageFix"/>
<feBlend mode="normal" in="SourceGraphic" in2="BackgroundImageFix" result="shape"/>
<feColorMatrix in="SourceAlpha" type="matrix" values="0 0 0 0 0 0 0 0 0 0 0 0 0 0 0 0 0 0 127 0" result="hardAlpha"/>
<feOffset dx="1.5" dy="1.5"/>
<feGaussianBlur stdDeviation="1"/>
<feComposite in2="hardAlpha" operator="arithmetic" k2="-1" k3="1"/>
<feColorMatrix type="matrix" values="0 0 0 0 1 0 0 0 0 1 0 0 0 0 1 0 0 0 0.6 0"/>
<feBlend mode="normal" in2="shape" result="effect1_innerShadow_77_5267"/>
</filter>
</defs>
</svg>
