<svg width="29" height="28" viewBox="0 0 29 28" fill="none" xmlns="http://www.w3.org/2000/svg">
<path d="M14.3141 2.33301C12.0067 2.33301 9.75105 3.01725 7.83248 4.2992C5.91391 5.58115 4.41856 7.40323 3.53554 9.53503C2.65252 11.6668 2.42148 14.0126 2.87164 16.2757C3.3218 18.5388 4.43294 20.6176 6.06455 22.2493C7.69617 23.8809 9.77497 24.992 12.0381 25.4422C14.3012 25.8923 16.647 25.6613 18.7788 24.7783C20.9106 23.8952 22.7327 22.3999 24.0146 20.4813C25.2966 18.5628 25.9808 16.3071 25.9808 13.9997C25.9774 10.9065 24.7471 7.94107 22.5599 5.75389C20.3727 3.56672 17.4073 2.33645 14.3141 2.33301ZM14.3141 23.333C12.4682 23.333 10.6637 22.7856 9.12881 21.7601C7.59395 20.7345 6.39768 19.2768 5.69126 17.5714C4.98484 15.8659 4.80001 13.9893 5.16014 12.1788C5.52027 10.3683 6.40918 8.7053 7.71447 7.40001C9.01976 6.09472 10.6828 5.20581 12.4933 4.84568C14.3038 4.48555 16.1804 4.67038 17.8858 5.3768C19.5913 6.08322 21.049 7.27949 22.0745 8.81435C23.1001 10.3492 23.6475 12.1537 23.6475 13.9997C23.6446 16.4742 22.6604 18.8465 20.9107 20.5962C19.1609 22.3459 16.7886 23.3302 14.3141 23.333ZM14.3141 13.4163C14.0047 13.4163 13.708 13.5393 13.4892 13.758C13.2704 13.9768 13.1475 14.2736 13.1475 14.583V18.083C13.1475 18.3924 13.2704 18.6892 13.4892 18.908C13.708 19.1268 14.0047 19.2497 14.3141 19.2497C14.6236 19.2497 14.9203 19.1268 15.1391 18.908C15.3579 18.6892 15.4808 18.3924 15.4808 18.083V14.583C15.4808 14.2736 15.3579 13.9768 15.1391 13.758C14.9203 13.5393 14.6236 13.4163 14.3141 13.4163ZM14.3141 8.74967C14.0257 8.74967 13.7437 8.8352 13.5039 8.99545C13.2641 9.15569 13.0772 9.38345 12.9668 9.64993C12.8564 9.9164 12.8276 10.2096 12.8838 10.4925C12.9401 10.7754 13.079 11.0353 13.2829 11.2392C13.4869 11.4432 13.7467 11.582 14.0296 11.6383C14.3125 11.6946 14.6057 11.6657 14.8722 11.5553C15.1387 11.445 15.3664 11.258 15.5267 11.0182C15.6869 10.7784 15.7725 10.4964 15.7725 10.208C15.7725 9.82123 15.6188 9.4503 15.3453 9.17681C15.0718 8.90332 14.7009 8.74967 14.3141 8.74967Z" fill="white"/>
</svg>
