<svg width="41" height="40" viewBox="0 0 41 40" fill="none" xmlns="http://www.w3.org/2000/svg">
<g filter="url(#filter0_i_77_4879)">
<path d="M7.38038 25.7728L14.8306 25.7728C15.2668 25.7728 15.6851 25.9461 15.9936 26.2545C16.302 26.563 16.4753 26.9813 16.4753 27.4175C16.4753 27.8537 16.302 28.272 15.9936 28.5804C15.6851 28.8888 15.2668 29.0621 14.8306 29.0621L10.8835 29.0621C12.6976 30.958 15.0372 32.268 17.6016 32.8241C20.166 33.3801 22.838 33.1566 25.2745 32.1824C27.7109 31.2082 29.8004 29.5277 31.2744 27.3569C32.7485 25.1861 33.5398 22.6241 33.5467 20.0001C33.5467 19.564 33.7199 19.1456 34.0284 18.8372C34.3368 18.5288 34.7551 18.3555 35.1913 18.3555C35.6275 18.3555 36.0458 18.5288 36.3542 18.8372C36.6627 19.1456 36.8359 19.564 36.8359 20.0001C36.8272 23.2118 35.8784 26.3506 34.1065 29.0293C32.3346 31.7079 29.8172 33.8092 26.8649 35.0737C23.9126 36.3382 20.6547 36.7106 17.4933 36.145C14.3318 35.5794 11.4051 34.1005 9.07437 31.8909L9.07437 34.8019C9.07437 35.2381 8.90109 35.6564 8.59266 35.9649C8.28423 36.2733 7.86591 36.4466 7.42973 36.4466C6.99354 36.4466 6.57522 36.2733 6.26679 35.9649C5.95836 35.6564 5.78508 35.2381 5.78508 34.8019L5.78508 27.401C5.78914 26.9761 5.95751 26.5693 6.25491 26.2657C6.5523 25.9622 6.95564 25.7856 7.38038 25.7728ZM20.3895 3.55371C24.6057 3.56574 28.6563 5.19657 31.7047 8.10937L31.7047 5.19835C31.7047 4.76217 31.8779 4.34385 32.1864 4.03542C32.4948 3.72699 32.9131 3.55371 33.3493 3.55371C33.7855 3.55371 34.2038 3.72699 34.5122 4.03542C34.8207 4.34385 34.9939 4.76217 34.9939 5.19835L34.9939 12.5992C34.9939 13.0354 34.8207 13.4538 34.5122 13.7622C34.2038 14.0706 33.7855 14.2439 33.3493 14.2439L25.9484 14.2439C25.5122 14.2439 25.0939 14.0706 24.7855 13.7622C24.477 13.4538 24.3038 13.0354 24.3038 12.5992C24.3038 12.1631 24.477 11.7447 24.7855 11.4363C25.0939 11.1279 25.5122 10.9546 25.9484 10.9546L29.8955 10.9546C28.0824 9.05976 25.7443 7.75002 23.1815 7.19348C20.6186 6.63695 17.9479 6.85902 15.5121 7.8312C13.0764 8.80338 10.9868 10.4813 9.51146 12.6496C8.03615 14.8179 7.2425 17.3776 7.23237 20.0001C7.23237 20.4363 7.05909 20.8546 6.75066 21.1631C6.44223 21.4715 6.02391 21.6448 5.58772 21.6448C5.15154 21.6448 4.73322 21.4715 4.42479 21.1631C4.11636 20.8546 3.94308 20.4363 3.94308 20.0001C3.94308 17.8404 4.36848 15.7017 5.19499 13.7064C6.0215 11.711 7.23294 9.89795 8.76013 8.37076C10.2873 6.84357 12.1004 5.63213 14.0957 4.80562C16.0911 3.97911 18.2297 3.55371 20.3895 3.55371Z" fill="white"/>
</g>
<defs>
<filter id="filter0_i_77_4879" x="3.94287" y="3.55371" width="34.2088" height="34.2088" filterUnits="userSpaceOnUse" color-interpolation-filters="sRGB">
<feFlood flood-opacity="0" result="BackgroundImageFix"/>
<feBlend mode="normal" in="SourceGraphic" in2="BackgroundImageFix" result="shape"/>
<feColorMatrix in="SourceAlpha" type="matrix" values="0 0 0 0 0 0 0 0 0 0 0 0 0 0 0 0 0 0 127 0" result="hardAlpha"/>
<feOffset dx="1.31571" dy="1.31571"/>
<feGaussianBlur stdDeviation="0.657857"/>
<feComposite in2="hardAlpha" operator="arithmetic" k2="-1" k3="1"/>
<feColorMatrix type="matrix" values="0 0 0 0 1 0 0 0 0 1 0 0 0 0 1 0 0 0 0.5 0"/>
<feBlend mode="normal" in2="shape" result="effect1_innerShadow_77_4879"/>
</filter>
</defs>
</svg>
