<svg width="24" height="24" viewBox="0 0 24 24" fill="none" xmlns="http://www.w3.org/2000/svg">
<path d="M12.4007 4.62653C12.2491 4.56096 12.0829 4.53678 11.9189 4.55645C11.7549 4.57613 11.5991 4.63896 11.4674 4.73853L7.00602 8.26653H3.59935C3.35181 8.26653 3.11442 8.36487 2.93938 8.5399C2.76435 8.71494 2.66602 8.95233 2.66602 9.19987V14.7999C2.66602 15.0474 2.76435 15.2848 2.93938 15.4598C3.11442 15.6349 3.35181 15.7332 3.59935 15.7332H7.00602L11.4207 19.2612C11.5849 19.393 11.7888 19.4653 11.9993 19.4665C12.1388 19.4688 12.2766 19.4368 12.4007 19.3732C12.5595 19.2976 12.6937 19.1786 12.7879 19.0299C12.882 18.8813 12.9322 18.7091 12.9327 18.5332V5.46653C12.9322 5.29061 12.882 5.11842 12.7879 4.96979C12.6937 4.82117 12.5595 4.70218 12.4007 4.62653ZM11.066 16.5919L7.91135 14.0719C7.74714 13.9401 7.54321 13.8678 7.33268 13.8665H4.53268V10.1332H7.33268C7.54321 10.132 7.74714 10.0596 7.91135 9.92787L11.066 7.40787V16.5919ZM19.1487 6.7172C18.9729 6.54145 18.7346 6.44272 18.486 6.44272C18.2375 6.44272 17.9991 6.54145 17.8233 6.7172C17.6476 6.89295 17.5489 7.13132 17.5489 7.37987C17.5489 7.62842 17.6476 7.86678 17.8233 8.04253C18.3729 8.59128 18.8024 9.24834 19.0844 9.97197C19.3664 10.6956 19.4948 11.47 19.4615 12.2459C19.4281 13.0218 19.2337 13.7823 18.8907 14.4791C18.5476 15.1759 18.0633 15.7936 17.4687 16.2932C17.3243 16.4167 17.221 16.5813 17.1726 16.7651C17.1243 16.9488 17.1331 17.143 17.1981 17.3215C17.263 17.5001 17.3809 17.6546 17.536 17.7644C17.6911 17.8742 17.876 17.934 18.066 17.9359C18.2841 17.9363 18.4954 17.8603 18.6633 17.7212C19.4576 17.056 20.1047 16.2328 20.5635 15.304C21.0223 14.3752 21.2828 13.361 21.3285 12.326C21.3741 11.2911 21.2039 10.2579 20.8286 9.29231C20.4534 8.32669 19.8812 7.44973 19.1487 6.7172ZM16.5073 9.35853C16.4203 9.27151 16.317 9.20248 16.2033 9.15539C16.0896 9.10829 15.9678 9.08405 15.8447 9.08405C15.7216 9.08405 15.5998 9.10829 15.4861 9.15539C15.3724 9.20248 15.269 9.27151 15.182 9.35853C15.095 9.44556 15.026 9.54887 14.9789 9.66257C14.9318 9.77627 14.9075 9.89813 14.9075 10.0212C14.9075 10.1443 14.9318 10.2661 14.9789 10.3798C15.026 10.4935 15.095 10.5968 15.182 10.6839C15.5326 11.0323 15.7306 11.5056 15.7327 11.9999C15.7329 12.2718 15.6737 12.5405 15.5593 12.7871C15.4448 13.0338 15.2778 13.2525 15.07 13.4279C14.9755 13.5062 14.8974 13.6024 14.8401 13.711C14.7829 13.8196 14.7476 13.9385 14.7363 14.0607C14.725 14.1829 14.738 14.3062 14.7744 14.4234C14.8109 14.5407 14.8701 14.6496 14.9487 14.7439C15.0277 14.8377 15.1244 14.915 15.2333 14.9714C15.3423 15.0279 15.4612 15.0623 15.5835 15.0727C15.7057 15.0831 15.8288 15.0693 15.9457 15.0321C16.0625 14.9949 16.171 14.935 16.2647 14.8559C16.682 14.506 17.0177 14.069 17.2483 13.5757C17.4788 13.0823 17.5986 12.5445 17.5993 11.9999C17.5941 11.0106 17.2022 10.0627 16.5073 9.35853Z" fill="white"/>
</svg>
