<svg width="66" height="88" viewBox="0 0 66 88" fill="none" xmlns="http://www.w3.org/2000/svg">
<g filter="url(#filter0_i_77_4849)">
<path d="M12.9503 21.9883C20.0927 15.372 29.5034 11.7515 39.2385 11.8745L34.6564 6.95623C33.9698 6.21927 33.6041 5.23976 33.6397 4.23317C33.6753 3.22658 34.1094 2.27536 34.8463 1.58877C35.5833 0.902188 36.5628 0.536476 37.5694 0.57209C38.576 0.607704 39.5272 1.04173 40.2138 1.77868L51.8633 14.2827C52.5498 15.0197 52.9156 15.9992 52.8799 17.0058C52.8443 18.0124 52.4103 18.9636 51.6733 19.6502L39.1693 31.2997C38.4323 31.9862 37.4528 32.352 36.4462 32.3163C35.4396 32.2807 34.4884 31.8467 33.8018 31.1098C33.1153 30.3728 32.7495 29.3933 32.7852 28.3867C32.8208 27.3801 33.2548 26.4289 33.9917 25.7423L40.6606 19.5292C35.6343 19.2136 30.6083 20.1524 26.0349 22.2612C21.4614 24.37 17.4839 27.5826 14.4602 31.61C11.4364 35.6374 9.46122 40.3534 8.71234 45.3336C7.96345 50.3138 8.46433 55.4021 10.1699 60.1407C11.8755 64.8793 14.7323 69.1196 18.4833 72.4802C22.2343 75.8407 26.7619 78.2161 31.6588 79.3926C36.5556 80.5691 41.6682 80.5099 46.5364 79.2203C51.4047 77.9306 55.8761 75.451 59.5483 72.0045C60.2852 71.3179 61.2647 70.9522 62.2713 70.9878C63.2779 71.0234 64.2291 71.4575 64.9157 72.1944C65.6023 72.9314 65.968 73.9109 65.9324 74.9175C65.8968 75.9241 65.4628 76.8753 64.7258 77.5619C57.3563 84.4277 47.5612 88.0849 37.4952 87.7287C27.4293 87.3726 17.9171 83.0323 11.0513 75.6628C4.18543 68.2933 0.528314 58.4982 0.884452 48.4323C1.24059 38.3663 5.58083 28.8542 12.9503 21.9883Z" fill="#00711E"/>
</g>
<defs>
<filter id="filter0_i_77_4849" x="0.86084" y="0.569824" width="66.3894" height="88.4983" filterUnits="userSpaceOnUse" color-interpolation-filters="sRGB">
<feFlood flood-opacity="0" result="BackgroundImageFix"/>
<feBlend mode="normal" in="SourceGraphic" in2="BackgroundImageFix" result="shape"/>
<feColorMatrix in="SourceAlpha" type="matrix" values="0 0 0 0 0 0 0 0 0 0 0 0 0 0 0 0 0 0 127 0" result="hardAlpha"/>
<feOffset dx="1.31571" dy="1.31571"/>
<feGaussianBlur stdDeviation="0.657857"/>
<feComposite in2="hardAlpha" operator="arithmetic" k2="-1" k3="1"/>
<feColorMatrix type="matrix" values="0 0 0 0 1 0 0 0 0 1 0 0 0 0 1 0 0 0 0.65 0"/>
<feBlend mode="normal" in2="shape" result="effect1_innerShadow_77_4849"/>
</filter>
</defs>
</svg>
