<svg width="33" height="32" viewBox="0 0 33 32" fill="none" xmlns="http://www.w3.org/2000/svg">
<path d="M11.8141 27.9995C11.6269 28.0001 11.4433 27.9481 11.2841 27.8495C11.0924 27.7305 10.9465 27.5501 10.8702 27.3377C10.794 27.1253 10.7918 26.8933 10.8641 26.6795L13.4241 18.9995H7.81413C7.62287 19 7.43548 18.9456 7.27418 18.8428C7.11289 18.74 6.98446 18.5931 6.90413 18.4195C6.82404 18.2455 6.79559 18.0522 6.82218 17.8625C6.84878 17.6728 6.92928 17.4947 7.05413 17.3495L18.0541 4.34948C18.1981 4.18057 18.3941 4.06433 18.6113 4.01907C18.8286 3.97381 19.0547 4.0021 19.2541 4.09948C19.4574 4.19781 19.6213 4.362 19.7194 4.56535C19.8174 4.76871 19.8438 4.99925 19.7941 5.21948L18.0641 12.9995H24.8141C25.0116 13.0005 25.2043 13.0599 25.368 13.1702C25.5317 13.2805 25.6591 13.4369 25.7341 13.6195C25.8107 13.8016 25.8316 14.0023 25.7943 14.1963C25.7569 14.3903 25.6629 14.5689 25.5241 14.7095L12.5241 27.7095C12.4307 27.8022 12.3199 27.8755 12.198 27.9253C12.0762 27.975 11.9457 28.0002 11.8141 27.9995ZM9.97413 16.9995H14.8141C14.9728 17.0002 15.129 17.0387 15.2698 17.1117C15.4107 17.1847 15.5321 17.2902 15.6241 17.4195C15.7171 17.5477 15.7782 17.6962 15.8025 17.8526C15.8269 18.0091 15.8137 18.1691 15.7641 18.3195L14.1041 23.3195L22.4041 15.0195H16.8141C16.6647 15.02 16.5171 14.987 16.3821 14.923C16.2472 14.859 16.1283 14.7655 16.0341 14.6495C15.9387 14.5322 15.8711 14.3947 15.8365 14.2475C15.8018 14.1002 15.801 13.9471 15.8341 13.7995L16.9541 8.79948L9.97413 16.9995Z" fill="white"/>
</svg>
