<svg width="24" height="24" viewBox="0 0 24 24" fill="none" xmlns="http://www.w3.org/2000/svg">
<path d="M18.6458 2.86259C18.5361 2.7705 18.4066 2.70492 18.2674 2.67093C18.1282 2.63694 17.983 2.63545 17.8432 2.66659L10.3765 4.53325C10.1694 4.58435 9.98607 4.70484 9.85701 4.87466C9.72795 5.04448 9.66094 5.25338 9.66716 5.46659V15.1266C9.23107 14.9136 8.75248 14.8019 8.26716 14.7999C7.62107 14.7999 6.98949 14.9915 6.45229 15.3505C5.91509 15.7094 5.4964 16.2196 5.24915 16.8165C5.0019 17.4134 4.93721 18.0702 5.06326 18.7039C5.1893 19.3376 5.50042 19.9196 5.95727 20.3765C6.41413 20.8333 6.99619 21.1444 7.62986 21.2705C8.26353 21.3965 8.92035 21.3318 9.51726 21.0846C10.1142 20.8373 10.6243 20.4187 10.9833 19.8815C11.3422 19.3442 11.5338 18.7127 11.5338 18.0666V10.8613L18.2912 9.19992H18.3565L18.5338 9.05992L18.6738 8.96659C18.7191 8.92438 18.7598 8.87745 18.7952 8.82659C18.8316 8.78369 18.8629 8.7367 18.8885 8.68659C18.9167 8.63425 18.9357 8.57741 18.9445 8.51859C18.9542 8.45988 18.9542 8.39996 18.9445 8.34125C18.9487 8.31654 18.9487 8.2913 18.9445 8.26659V3.59992C18.9521 3.46261 18.9293 3.3253 18.8776 3.19784C18.826 3.07037 18.7469 2.95589 18.6458 2.86259ZM8.26716 19.4666C7.99026 19.4666 7.71959 19.3845 7.48936 19.2306C7.25913 19.0768 7.07969 18.8582 6.97372 18.6023C6.86776 18.3465 6.84004 18.065 6.89406 17.7935C6.94808 17.5219 7.08141 17.2724 7.27721 17.0766C7.473 16.8808 7.72246 16.7475 7.99403 16.6935C8.2656 16.6395 8.5471 16.6672 8.80291 16.7732C9.05873 16.8791 9.27738 17.0586 9.43121 17.2888C9.58505 17.519 9.66716 17.7897 9.66716 18.0666C9.66716 18.4379 9.51966 18.794 9.25711 19.0565C8.99455 19.3191 8.63846 19.4666 8.26716 19.4666ZM17.1338 7.53859L11.5338 8.93859V6.19459L17.1338 4.79459V7.53859Z" fill="white"/>
</svg>
