<svg width="26" height="26" viewBox="0 0 26 26" fill="none" xmlns="http://www.w3.org/2000/svg">
<path d="M9.34361 22.7497C9.19149 22.7502 9.04229 22.708 8.91299 22.6278C8.75718 22.5311 8.63866 22.3846 8.5767 22.212C8.51475 22.0394 8.513 21.8509 8.57174 21.6772L10.6517 15.4372H6.09361C5.93821 15.4376 5.78595 15.3934 5.6549 15.3099C5.52385 15.2263 5.41951 15.107 5.35424 14.966C5.28916 14.8246 5.26605 14.6675 5.28765 14.5134C5.30926 14.3593 5.37467 14.2146 5.47611 14.0966L14.4136 3.53408C14.5306 3.39683 14.6898 3.30239 14.8663 3.26561C15.0429 3.22884 15.2266 3.25183 15.3886 3.33095C15.5537 3.41084 15.6869 3.54425 15.7666 3.70947C15.8463 3.8747 15.8677 4.06201 15.8274 4.24095L14.4217 10.5622H19.9061C20.0665 10.563 20.2231 10.6113 20.3561 10.7009C20.4891 10.7906 20.5927 10.9176 20.6536 11.066C20.7158 11.2139 20.7328 11.377 20.7025 11.5346C20.6721 11.6922 20.5957 11.8373 20.483 11.9516L9.92049 22.5141C9.84457 22.5894 9.75453 22.649 9.65554 22.6894C9.55654 22.7298 9.45054 22.7503 9.34361 22.7497ZM7.84861 13.8122H11.7811C11.91 13.8128 12.0369 13.8441 12.1514 13.9034C12.2658 13.9627 12.3645 14.0484 12.4392 14.1535C12.5147 14.2576 12.5644 14.3782 12.5842 14.5054C12.604 14.6325 12.5933 14.7625 12.553 14.8847L11.2042 18.9472L17.948 12.2035H13.4061C13.2847 12.2039 13.1648 12.1771 13.0551 12.1251C12.9455 12.073 12.8488 11.9971 12.7724 11.9028C12.6948 11.8075 12.6399 11.6958 12.6117 11.5762C12.5836 11.4566 12.583 11.3321 12.6099 11.2122L13.5199 7.1497L7.84861 13.8122Z" fill="white"/>
</svg>
